<mxfile host="app.diagrams.net" modified="2024-03-22T23:41:26.314Z" agent="Mozilla/5.0 (Windows NT 10.0; Win64; x64) AppleWebKit/537.36 (KHTML, like Gecko) Chrome/123.0.0.0 Safari/537.36" version="24.0.8" etag="MnU8uwzUEdx3DXsd9IGq" type="github">
  <diagram name="PÃ¡gina-1" id="zVFO2DZ6uDQvQSaBv_zA">
    <mxGraphModel>
      <root>
        <mxCell id="0" />
        <mxCell id="1" parent="0" />
      </root>
    </mxGraphModel>
  </diagram>
</mxfile>
